<svg xmlns="http://www.w3.org/2000/svg" xmlns:v="https://svgstorm.com"
viewBox = "0 0 512 512"
width="512"
height="512">
<g fill="None" fill-opacity="0.0" stroke="#000000" stroke-opacity="0.00" stroke-width="0.3"><path d="
M 0.00 512.00 
L 512.00 512.00
L 512.00 0.00
L 0.00 0.00
L 0.00 512.00
M 161.00 68.00 
C 145.76 75.41 133.12 83.41 119.75 94.75 C 106.38 106.10 97.15 119.55 94.01 137.01 C 90.87 154.47 97.73 175.83 105.77 191.23 C 113.81 206.63 120.59 220.52 129.77 235.23 C 138.95 249.94 145.74 264.14 152.78 280.22 C 159.81 296.31 162.15 321.93 158.07 339.07 C 153.99 356.21 145.52 370.36 133.75 382.75 C 121.98 395.15 109.57 405.25 94.92 411.92 C 80.27 418.60 54.55 425.80 71.00 446.00
C 60.39 445.79 49.86 446.70 41.30 439.70 C 32.75 432.69 30.55 424.36 31.00 413.00 C 31.45 401.64 30.80 387.88 31.00 376.00 C 31.20 364.12 30.90 351.09 31.00 339.00 C 31.10 326.91 30.95 314.14 31.00 302.00 C 31.05 289.86 30.96 278.17 31.00 266.00 C 31.04 253.83 30.95 241.19 31.00 229.00 C 31.05 216.81 30.90 204.12 31.00 192.00 C 31.10 179.88 30.79 166.91 31.00 155.00 C 31.21 143.09 30.54 129.41 31.00 118.00 C 31.46 106.59 29.11 93.66 32.93 83.93 C 36.75 74.19 42.73 69.20 53.02 67.02 C 63.32 64.85 77.65 66.14 89.00 66.00 C 100.35 65.86 114.53 65.68 126.00 66.00 C 137.47 66.32 152.02 64.11 161.00 68.00
M 99.00 444.00 
C 122.17 435.27 140.29 421.71 158.25 403.25 C 176.20 384.79 188.28 365.70 195.78 340.78 C 203.28 315.85 195.32 281.95 183.23 259.77 C 171.13 237.59 160.69 217.01 146.70 196.30 C 132.70 175.59 124.97 140.44 141.75 120.75 C 158.54 101.07 192.24 94.55 175.00 66.00
C 186.54 66.18 200.72 65.77 212.00 66.00 C 223.28 66.23 230.53 68.27 238.25 76.75 C 245.96 85.23 245.17 96.34 245.00 108.00 C 244.83 119.66 245.08 132.93 245.00 145.00 C 244.92 157.07 245.03 169.69 245.00 182.00 C 244.97 194.31 245.01 207.60 245.00 220.00 C 244.99 232.40 245.00 244.58 245.00 257.00 C 245.00 269.42 244.98 282.61 245.00 295.00 C 245.02 307.39 244.95 319.73 245.00 332.00 C 245.05 344.27 244.88 356.89 245.00 369.00 C 245.12 381.11 244.74 395.28 245.00 407.00 C 245.26 418.72 245.30 428.05 237.25 436.25 C 229.20 444.45 221.62 446.09 210.00 446.00 C 198.38 445.91 183.93 446.23 172.00 446.00 C 160.07 445.77 146.87 446.53 135.00 446.00 C 123.13 445.47 108.36 448.05 99.00 444.00
M 367.00 446.00 
C 374.57 438.28 381.53 430.68 386.31 420.31 C 391.08 409.93 396.29 400.36 400.32 389.32 C 404.36 378.29 409.05 367.33 412.78 355.78 C 416.50 344.22 419.56 332.31 422.00 320.00 C 424.43 307.68 427.80 294.47 429.78 281.78 C 431.76 269.09 433.77 256.03 436.33 243.33 C 438.89 230.63 439.70 216.05 441.00 203.00 C 442.30 189.95 445.57 175.72 446.98 162.98 C 448.39 150.23 451.26 136.27 453.33 124.33 C 455.40 112.39 460.50 96.71 446.77 90.23 C 433.04 83.75 422.95 95.91 423.00 109.00 C 423.05 122.09 421.93 138.99 420.07 152.07 C 418.22 165.16 417.36 178.98 415.00 192.00 C 412.64 205.02 411.53 218.49 409.67 231.67 C 407.81 244.85 406.97 259.70 404.67 272.67 C 402.37 285.64 399.49 296.44 396.01 309.01 C 392.52 321.58 390.44 333.17 387.01 346.01 C 383.58 358.84 383.17 366.37 374.08 378.08 C 365.00 389.79 361.02 369.91 359.02 358.98 C 357.03 348.05 351.87 335.25 349.22 323.78 C 346.57 312.31 343.35 299.63 340.02 287.98 C 336.70 276.32 333.53 263.75 330.07 251.93 C 326.62 240.10 324.24 228.32 320.67 216.33 C 317.11 204.34 315.12 190.74 312.67 178.33 C 310.23 165.91 307.30 156.23 301.23 144.77 C 295.15 133.32 278.36 133.58 267.00 135.00
C 269.06 115.17 258.36 74.14 286.08 68.08 C 313.79 62.01 341.02 66.60 370.00 66.00 C 398.98 65.40 426.62 64.20 456.07 66.93 C 485.53 69.65 481.63 102.95 481.00 128.00 C 480.37 153.05 481.12 187.34 481.00 214.00 C 480.88 240.66 480.70 274.21 481.00 301.00 C 481.30 327.79 480.07 361.46 481.00 387.00 C 481.93 412.54 484.26 443.58 453.93 445.93 C 423.60 448.28 396.99 444.32 367.00 446.00
M 268.00 153.00 
C 291.97 198.46 294.42 249.37 311.78 297.22 C 329.13 345.08 329.23 400.06 352.00 446.00
C 328.95 441.40 302.40 453.92 281.31 441.69 C 260.21 429.47 267.85 402.60 267.00 380.00 C 266.15 357.40 267.30 327.99 267.00 304.00 C 266.70 280.01 266.96 252.48 267.00 228.00 C 267.04 203.52 266.13 176.75 268.00 153.00 Z"/>
</g>
<g fill="None" fill-opacity="0.0" stroke="#2493D1" stroke-opacity="0.99" stroke-width="0.3"><path d="
M 161.00 68.00 
C 152.02 64.11 137.47 66.32 126.00 66.00 C 114.53 65.68 100.35 65.86 89.00 66.00 C 77.65 66.14 63.32 64.85 53.02 67.02 C 42.73 69.20 36.75 74.19 32.93 83.93 C 29.11 93.66 31.46 106.59 31.00 118.00 C 30.54 129.41 31.21 143.09 31.00 155.00 C 30.79 166.91 31.10 179.88 31.00 192.00 C 30.90 204.12 31.05 216.81 31.00 229.00 C 30.95 241.19 31.04 253.83 31.00 266.00 C 30.96 278.17 31.05 289.86 31.00 302.00 C 30.95 314.14 31.10 326.91 31.00 339.00 C 30.90 351.09 31.20 364.12 31.00 376.00 C 30.80 387.88 31.45 401.64 31.00 413.00 C 30.55 424.36 32.75 432.69 41.30 439.70 C 49.86 446.70 60.39 445.79 71.00 446.00
C 54.55 425.80 80.27 418.60 94.92 411.92 C 109.57 405.25 121.98 395.15 133.75 382.75 C 145.52 370.36 153.99 356.21 158.07 339.07 C 162.15 321.93 159.81 296.31 152.78 280.22 C 145.74 264.14 138.95 249.94 129.77 235.23 C 120.59 220.52 113.81 206.63 105.77 191.23 C 97.73 175.83 90.87 154.47 94.01 137.01 C 97.15 119.55 106.38 106.10 119.75 94.75 C 133.12 83.41 145.76 75.41 161.00 68.00 Z"/>
</g>
<g fill="None" fill-opacity="0.0" stroke="#2493D1" stroke-opacity="0.98" stroke-width="0.3"><path d="
M 99.00 444.00 
C 108.36 448.05 123.13 445.47 135.00 446.00 C 146.87 446.53 160.07 445.77 172.00 446.00 C 183.93 446.23 198.38 445.91 210.00 446.00 C 221.62 446.09 229.20 444.45 237.25 436.25 C 245.30 428.05 245.26 418.72 245.00 407.00 C 244.74 395.28 245.12 381.11 245.00 369.00 C 244.88 356.89 245.05 344.27 245.00 332.00 C 244.95 319.73 245.02 307.39 245.00 295.00 C 244.98 282.61 245.00 269.42 245.00 257.00 C 245.00 244.58 244.99 232.40 245.00 220.00 C 245.01 207.60 244.97 194.31 245.00 182.00 C 245.03 169.69 244.92 157.07 245.00 145.00 C 245.08 132.93 244.83 119.66 245.00 108.00 C 245.17 96.34 245.96 85.23 238.25 76.75 C 230.53 68.27 223.28 66.23 212.00 66.00 C 200.72 65.77 186.54 66.18 175.00 66.00
C 192.24 94.55 158.54 101.07 141.75 120.75 C 124.97 140.44 132.70 175.59 146.70 196.30 C 160.69 217.01 171.13 237.59 183.23 259.77 C 195.32 281.95 203.28 315.85 195.78 340.78 C 188.28 365.70 176.20 384.79 158.25 403.25 C 140.29 421.71 122.17 435.27 99.00 444.00 Z"/>
</g>
<g fill="None" fill-opacity="0.0" stroke="#6ECFF5" stroke-opacity="0.98" stroke-width="0.3"><path d="
M 367.00 446.00 
C 396.99 444.32 423.60 448.28 453.93 445.93 C 484.26 443.58 481.93 412.54 481.00 387.00 C 480.07 361.46 481.30 327.79 481.00 301.00 C 480.70 274.21 480.88 240.66 481.00 214.00 C 481.12 187.34 480.37 153.05 481.00 128.00 C 481.63 102.95 485.53 69.65 456.07 66.93 C 426.62 64.20 398.98 65.40 370.00 66.00 C 341.02 66.60 313.79 62.01 286.08 68.08 C 258.36 74.14 269.06 115.17 267.00 135.00
C 278.36 133.58 295.15 133.32 301.23 144.77 C 307.30 156.23 310.23 165.91 312.67 178.33 C 315.12 190.74 317.11 204.34 320.67 216.33 C 324.24 228.32 326.62 240.10 330.07 251.93 C 333.53 263.75 336.70 276.32 340.02 287.98 C 343.35 299.63 346.57 312.31 349.22 323.78 C 351.87 335.25 357.03 348.05 359.02 358.98 C 361.02 369.91 365.00 389.79 374.08 378.08 C 383.17 366.37 383.58 358.84 387.01 346.01 C 390.44 333.17 392.52 321.58 396.01 309.01 C 399.49 296.44 402.37 285.64 404.67 272.67 C 406.97 259.70 407.81 244.85 409.67 231.67 C 411.53 218.49 412.64 205.02 415.00 192.00 C 417.36 178.98 418.22 165.16 420.07 152.07 C 421.93 138.99 423.05 122.09 423.00 109.00 C 422.95 95.91 433.04 83.75 446.77 90.23 C 460.50 96.71 455.40 112.39 453.33 124.33 C 451.26 136.27 448.39 150.23 446.98 162.98 C 445.57 175.72 442.30 189.95 441.00 203.00 C 439.70 216.05 438.89 230.63 436.33 243.33 C 433.77 256.03 431.76 269.09 429.78 281.78 C 427.80 294.47 424.43 307.68 422.00 320.00 C 419.56 332.31 416.50 344.22 412.78 355.78 C 409.05 367.33 404.36 378.29 400.32 389.32 C 396.29 400.36 391.08 409.93 386.31 420.31 C 381.53 430.68 374.57 438.28 367.00 446.00 Z"/>
</g>
<g fill="None" fill-opacity="0.0" stroke="#6ECEF4" stroke-opacity="0.97" stroke-width="0.3"><path d="
M 268.00 153.00 
C 266.13 176.75 267.04 203.52 267.00 228.00 C 266.96 252.48 266.70 280.01 267.00 304.00 C 267.30 327.99 266.15 357.40 267.00 380.00 C 267.85 402.60 260.21 429.47 281.31 441.69 C 302.40 453.92 328.95 441.40 352.00 446.00
C 329.23 400.06 329.13 345.08 311.78 297.22 C 294.42 249.37 291.97 198.46 268.00 153.00 Z"/>
</g>
<g fill="#000000" fill-opacity="0.00" stroke="None">
<path d="
M 0.00 512.00 
L 512.00 512.00
L 512.00 0.00
L 0.00 0.00
L 0.00 512.00
M 161.00 68.00 
C 145.76 75.41 133.12 83.41 119.75 94.75 C 106.38 106.10 97.15 119.55 94.01 137.01 C 90.87 154.47 97.73 175.83 105.77 191.23 C 113.81 206.63 120.59 220.52 129.77 235.23 C 138.95 249.94 145.74 264.14 152.78 280.22 C 159.81 296.31 162.15 321.93 158.07 339.07 C 153.99 356.21 145.52 370.36 133.75 382.75 C 121.98 395.15 109.57 405.25 94.92 411.92 C 80.27 418.60 54.55 425.80 71.00 446.00
C 60.39 445.79 49.86 446.70 41.30 439.70 C 32.75 432.69 30.55 424.36 31.00 413.00 C 31.45 401.64 30.80 387.88 31.00 376.00 C 31.20 364.12 30.90 351.09 31.00 339.00 C 31.10 326.91 30.95 314.14 31.00 302.00 C 31.05 289.86 30.96 278.17 31.00 266.00 C 31.04 253.83 30.95 241.19 31.00 229.00 C 31.05 216.81 30.90 204.12 31.00 192.00 C 31.10 179.88 30.79 166.91 31.00 155.00 C 31.21 143.09 30.54 129.41 31.00 118.00 C 31.46 106.59 29.11 93.66 32.93 83.93 C 36.75 74.19 42.73 69.20 53.02 67.02 C 63.32 64.85 77.65 66.14 89.00 66.00 C 100.35 65.86 114.53 65.68 126.00 66.00 C 137.47 66.32 152.02 64.11 161.00 68.00
M 99.00 444.00 
C 122.17 435.27 140.29 421.71 158.25 403.25 C 176.20 384.79 188.28 365.70 195.78 340.78 C 203.28 315.85 195.32 281.95 183.23 259.77 C 171.13 237.59 160.69 217.01 146.70 196.30 C 132.70 175.59 124.97 140.44 141.75 120.75 C 158.54 101.07 192.24 94.55 175.00 66.00
C 186.54 66.18 200.72 65.77 212.00 66.00 C 223.28 66.23 230.53 68.27 238.25 76.75 C 245.96 85.23 245.17 96.34 245.00 108.00 C 244.83 119.66 245.08 132.93 245.00 145.00 C 244.92 157.07 245.03 169.69 245.00 182.00 C 244.97 194.31 245.01 207.60 245.00 220.00 C 244.99 232.40 245.00 244.58 245.00 257.00 C 245.00 269.42 244.98 282.61 245.00 295.00 C 245.02 307.39 244.95 319.73 245.00 332.00 C 245.05 344.27 244.88 356.89 245.00 369.00 C 245.12 381.11 244.74 395.28 245.00 407.00 C 245.26 418.72 245.30 428.05 237.25 436.25 C 229.20 444.45 221.62 446.09 210.00 446.00 C 198.38 445.91 183.93 446.23 172.00 446.00 C 160.07 445.77 146.87 446.53 135.00 446.00 C 123.13 445.47 108.36 448.05 99.00 444.00
M 367.00 446.00 
C 374.57 438.28 381.53 430.68 386.31 420.31 C 391.08 409.93 396.29 400.36 400.32 389.32 C 404.36 378.29 409.05 367.33 412.78 355.78 C 416.50 344.22 419.56 332.31 422.00 320.00 C 424.43 307.68 427.80 294.47 429.78 281.78 C 431.76 269.09 433.77 256.03 436.33 243.33 C 438.89 230.63 439.70 216.05 441.00 203.00 C 442.30 189.95 445.57 175.72 446.98 162.98 C 448.39 150.23 451.26 136.27 453.33 124.33 C 455.40 112.39 460.50 96.71 446.77 90.23 C 433.04 83.75 422.95 95.91 423.00 109.00 C 423.05 122.09 421.93 138.99 420.07 152.07 C 418.22 165.16 417.36 178.98 415.00 192.00 C 412.64 205.02 411.53 218.49 409.67 231.67 C 407.81 244.85 406.97 259.70 404.67 272.67 C 402.37 285.64 399.49 296.44 396.01 309.01 C 392.52 321.58 390.44 333.17 387.01 346.01 C 383.58 358.84 383.17 366.37 374.08 378.08 C 365.00 389.79 361.02 369.91 359.02 358.98 C 357.03 348.05 351.87 335.25 349.22 323.78 C 346.57 312.31 343.35 299.63 340.02 287.98 C 336.70 276.32 333.53 263.75 330.07 251.93 C 326.62 240.10 324.24 228.32 320.67 216.33 C 317.11 204.34 315.12 190.74 312.67 178.33 C 310.23 165.91 307.30 156.23 301.23 144.77 C 295.15 133.32 278.36 133.58 267.00 135.00
C 269.06 115.17 258.36 74.14 286.08 68.08 C 313.79 62.01 341.02 66.60 370.00 66.00 C 398.98 65.40 426.62 64.20 456.07 66.93 C 485.53 69.65 481.63 102.95 481.00 128.00 C 480.37 153.05 481.12 187.34 481.00 214.00 C 480.88 240.66 480.70 274.21 481.00 301.00 C 481.30 327.79 480.07 361.46 481.00 387.00 C 481.93 412.54 484.26 443.58 453.93 445.93 C 423.60 448.28 396.99 444.32 367.00 446.00
M 268.00 153.00 
C 291.97 198.46 294.42 249.37 311.78 297.22 C 329.13 345.08 329.23 400.06 352.00 446.00
C 328.95 441.40 302.40 453.92 281.31 441.69 C 260.21 429.47 267.85 402.60 267.00 380.00 C 266.15 357.40 267.30 327.99 267.00 304.00 C 266.70 280.01 266.96 252.48 267.00 228.00 C 267.04 203.52 266.13 176.75 268.00 153.00 Z"/>
</g>
<g fill="#2493D1" fill-opacity="0.99" stroke="None">
<path d="
M 161.00 68.00 
C 152.02 64.11 137.47 66.32 126.00 66.00 C 114.53 65.68 100.35 65.86 89.00 66.00 C 77.65 66.14 63.32 64.85 53.02 67.02 C 42.73 69.20 36.75 74.19 32.93 83.93 C 29.11 93.66 31.46 106.59 31.00 118.00 C 30.54 129.41 31.21 143.09 31.00 155.00 C 30.79 166.91 31.10 179.88 31.00 192.00 C 30.90 204.12 31.05 216.81 31.00 229.00 C 30.95 241.19 31.04 253.83 31.00 266.00 C 30.96 278.17 31.05 289.86 31.00 302.00 C 30.95 314.14 31.10 326.91 31.00 339.00 C 30.90 351.09 31.20 364.12 31.00 376.00 C 30.80 387.88 31.45 401.64 31.00 413.00 C 30.55 424.36 32.75 432.69 41.30 439.70 C 49.86 446.70 60.39 445.79 71.00 446.00
C 54.55 425.80 80.27 418.60 94.92 411.92 C 109.57 405.25 121.98 395.15 133.75 382.75 C 145.52 370.36 153.99 356.21 158.07 339.07 C 162.15 321.93 159.81 296.31 152.78 280.22 C 145.74 264.14 138.95 249.94 129.77 235.23 C 120.59 220.52 113.81 206.63 105.77 191.23 C 97.73 175.83 90.87 154.47 94.01 137.01 C 97.15 119.55 106.38 106.10 119.75 94.75 C 133.12 83.41 145.76 75.41 161.00 68.00 Z"/>
</g>
<g fill="#2493D1" fill-opacity="0.98" stroke="None">
<path d="
M 99.00 444.00 
C 108.36 448.05 123.13 445.47 135.00 446.00 C 146.87 446.53 160.07 445.77 172.00 446.00 C 183.93 446.23 198.38 445.91 210.00 446.00 C 221.62 446.09 229.20 444.45 237.25 436.25 C 245.30 428.05 245.26 418.72 245.00 407.00 C 244.74 395.28 245.12 381.11 245.00 369.00 C 244.88 356.89 245.05 344.27 245.00 332.00 C 244.95 319.73 245.02 307.39 245.00 295.00 C 244.98 282.61 245.00 269.42 245.00 257.00 C 245.00 244.58 244.99 232.40 245.00 220.00 C 245.01 207.60 244.97 194.31 245.00 182.00 C 245.03 169.69 244.92 157.07 245.00 145.00 C 245.08 132.93 244.83 119.66 245.00 108.00 C 245.17 96.34 245.96 85.23 238.25 76.75 C 230.53 68.27 223.28 66.23 212.00 66.00 C 200.72 65.77 186.54 66.18 175.00 66.00
C 192.24 94.55 158.54 101.07 141.75 120.75 C 124.97 140.44 132.70 175.59 146.70 196.30 C 160.69 217.01 171.13 237.59 183.23 259.77 C 195.32 281.95 203.28 315.85 195.78 340.78 C 188.28 365.70 176.20 384.79 158.25 403.25 C 140.29 421.71 122.17 435.27 99.00 444.00 Z"/>
</g>
<g fill="#6ECFF5" fill-opacity="0.98" stroke="None">
<path d="
M 367.00 446.00 
C 396.99 444.32 423.60 448.28 453.93 445.93 C 484.26 443.58 481.93 412.54 481.00 387.00 C 480.07 361.46 481.30 327.79 481.00 301.00 C 480.70 274.21 480.88 240.66 481.00 214.00 C 481.12 187.34 480.37 153.05 481.00 128.00 C 481.63 102.95 485.53 69.65 456.07 66.93 C 426.62 64.20 398.98 65.40 370.00 66.00 C 341.02 66.60 313.79 62.01 286.08 68.08 C 258.36 74.14 269.06 115.17 267.00 135.00
C 278.36 133.58 295.15 133.32 301.23 144.77 C 307.30 156.23 310.23 165.91 312.67 178.33 C 315.12 190.74 317.11 204.34 320.67 216.33 C 324.24 228.32 326.62 240.10 330.07 251.93 C 333.53 263.75 336.70 276.32 340.02 287.98 C 343.35 299.63 346.57 312.31 349.22 323.78 C 351.87 335.25 357.03 348.05 359.02 358.98 C 361.02 369.91 365.00 389.79 374.08 378.08 C 383.17 366.37 383.58 358.84 387.01 346.01 C 390.44 333.17 392.52 321.58 396.01 309.01 C 399.49 296.44 402.37 285.64 404.67 272.67 C 406.97 259.70 407.81 244.85 409.67 231.67 C 411.53 218.49 412.64 205.02 415.00 192.00 C 417.36 178.98 418.22 165.16 420.07 152.07 C 421.93 138.99 423.05 122.09 423.00 109.00 C 422.95 95.91 433.04 83.75 446.77 90.23 C 460.50 96.71 455.40 112.39 453.33 124.33 C 451.26 136.27 448.39 150.23 446.98 162.98 C 445.57 175.72 442.30 189.95 441.00 203.00 C 439.70 216.05 438.89 230.63 436.33 243.33 C 433.77 256.03 431.76 269.09 429.78 281.78 C 427.80 294.47 424.43 307.68 422.00 320.00 C 419.56 332.31 416.50 344.22 412.78 355.78 C 409.05 367.33 404.36 378.29 400.32 389.32 C 396.29 400.36 391.08 409.93 386.31 420.31 C 381.53 430.68 374.57 438.28 367.00 446.00 Z"/>
</g>
<g fill="#6ECEF4" fill-opacity="0.97" stroke="None">
<path d="
M 268.00 153.00 
C 266.13 176.75 267.04 203.52 267.00 228.00 C 266.96 252.48 266.70 280.01 267.00 304.00 C 267.30 327.99 266.15 357.40 267.00 380.00 C 267.85 402.60 260.21 429.47 281.31 441.69 C 302.40 453.92 328.95 441.40 352.00 446.00
C 329.23 400.06 329.13 345.08 311.78 297.22 C 294.42 249.37 291.97 198.46 268.00 153.00 Z"/>
</g>
</svg>